<svg width="20" height="20" viewBox="0 0 20 20" fill="none" xmlns="http://www.w3.org/2000/svg">
<path d="M3.06107 18.0451L3.50191 17.4383L3.06107 18.0451ZM1.95491 16.9389L2.56168 16.4981L1.95491 16.9389ZM18.0451 16.9389L17.4383 16.4981L18.0451 16.9389ZM16.9389 18.0451L16.4981 17.4383L16.9389 18.0451ZM16.9389 1.95491L16.4981 2.56168L16.9389 1.95491ZM18.0451 3.06107L17.4383 3.50191L18.0451 3.06107ZM3.06107 1.95491L3.50191 2.56168L3.06107 1.95491ZM1.95491 3.06107L2.56168 3.50191L1.95491 3.06107ZM11.1109 10V10.75V10ZM10 18.25C8.10843 18.25 6.74999 18.249 5.69804 18.135C4.66013 18.0225 4.00992 17.8074 3.50191 17.4383L2.62023 18.6518C3.42656 19.2377 4.37094 19.5 5.53648 19.6263C6.68798 19.751 8.14184 19.75 10 19.75V18.25ZM0.25 10C0.25 11.8582 0.248971 13.312 0.373728 14.4635C0.500006 15.6291 0.762324 16.5734 1.34815 17.3798L2.56168 16.4981C2.19259 15.9901 1.97745 15.3399 1.865 14.302C1.75103 13.25 1.75 11.8916 1.75 10H0.25ZM3.50191 17.4383C3.14111 17.1762 2.82382 16.8589 2.56168 16.4981L1.34815 17.3798C1.70281 17.8679 2.13209 18.2972 2.62023 18.6518L3.50191 17.4383ZM18.25 10C18.25 11.8916 18.249 13.25 18.135 14.302C18.0225 15.3399 17.8074 15.9901 17.4383 16.4981L18.6518 17.3798C19.2377 16.5734 19.5 15.6291 19.6263 14.4635C19.751 13.312 19.75 11.8582 19.75 10H18.25ZM10 19.75C11.8582 19.75 13.312 19.751 14.4635 19.6263C15.6291 19.5 16.5734 19.2377 17.3798 18.6518L16.4981 17.4383C15.9901 17.8074 15.3399 18.0225 14.302 18.135C13.25 18.249 11.8916 18.25 10 18.25V19.75ZM17.4383 16.4981C17.1762 16.8589 16.8589 17.1762 16.4981 17.4383L17.3798 18.6518C17.8679 18.2972 18.2972 17.8679 18.6518 17.3798L17.4383 16.4981ZM10 1.75C11.8916 1.75 13.25 1.75103 14.302 1.865C15.3399 1.97745 15.9901 2.19259 16.4981 2.56168L17.3798 1.34815C16.5734 0.762324 15.6291 0.500006 14.4635 0.373728C13.312 0.248971 11.8582 0.25 10 0.25V1.75ZM19.75 10C19.75 8.14184 19.751 6.68798 19.6263 5.53648C19.5 4.37094 19.2377 3.42656 18.6518 2.62023L17.4383 3.50191C17.8074 4.00992 18.0225 4.66013 18.135 5.69804C18.249 6.74999 18.25 8.10843 18.25 10H19.75ZM16.4981 2.56168C16.8589 2.82382 17.1762 3.14111 17.4383 3.50191L18.6518 2.62023C18.2972 2.13209 17.8679 1.70281 17.3798 1.34815L16.4981 2.56168ZM10 0.25C8.14184 0.25 6.68798 0.248971 5.53648 0.373728C4.37094 0.500006 3.42656 0.762324 2.62023 1.34815L3.50191 2.56168C4.00992 2.19259 4.66013 1.97745 5.69804 1.865C6.74999 1.75103 8.10843 1.75 10 1.75V0.25ZM1.75 10C1.75 8.10843 1.75103 6.74999 1.865 5.69804C1.97745 4.66013 2.19259 4.00992 2.56168 3.50191L1.34815 2.62023C0.762324 3.42656 0.500006 4.37094 0.373728 5.53648C0.248971 6.68798 0.25 8.14184 0.25 10H1.75ZM2.62023 1.34815C2.13209 1.70281 1.70281 2.13209 1.34815 2.62023L2.56168 3.50191C2.82382 3.14111 3.14111 2.82382 3.50191 2.56168L2.62023 1.34815ZM5.9165 6V10H7.4165V6H5.9165ZM5.9165 10V14H7.4165V10H5.9165ZM6.6665 10.75L11.1109 10.75V9.25L6.6665 9.25L6.6665 10.75ZM11.1109 10C11.1109 10.75 11.1114 10.75 11.1118 10.75C11.112 10.75 11.1124 10.75 11.1127 10.75C11.1133 10.75 11.114 10.75 11.1147 10.75C11.1161 10.75 11.1176 10.75 11.1193 10.75C11.1226 10.7499 11.1265 10.7499 11.1309 10.7498C11.1398 10.7496 11.1509 10.7494 11.164 10.7489C11.1902 10.7479 11.2248 10.7461 11.2665 10.7427C11.3497 10.736 11.4629 10.7231 11.5964 10.6981C11.8603 10.6486 12.2214 10.5484 12.5898 10.3412C13.3756 9.89913 14.0832 9.02759 14.0832 7.5H12.5832C12.5832 8.47241 12.1796 8.85087 11.8544 9.03382C11.6672 9.1391 11.4727 9.19515 11.32 9.22378C11.2451 9.23781 11.1847 9.24444 11.1464 9.24753C11.1273 9.24906 11.1141 9.24968 11.1078 9.24992C11.1046 9.25003 11.1032 9.25006 11.1037 9.25005C11.104 9.25004 11.1047 9.25003 11.1059 9.25002C11.1065 9.25002 11.1072 9.25001 11.108 9.25001C11.1085 9.25 11.1089 9.25 11.1094 9.25C11.1096 9.25 11.11 9.25 11.1101 9.25C11.1105 9.25 11.1109 9.25 11.1109 10ZM14.0832 7.5C14.0832 5.97244 13.3757 5.1009 12.5898 4.65884C11.8668 4.25216 11.1567 4.25 11.1109 4.25V5.75C11.0652 5.75 11.4662 5.74786 11.8544 5.96619C12.1796 6.14914 12.5832 6.5276 12.5832 7.5H14.0832ZM11.1109 4.25H7.6665V5.75H11.1109V4.25ZM7.6665 15.75H11.1109V14.25H7.6665V15.75ZM11.1109 15C11.1109 15.75 11.1114 15.75 11.1118 15.75C11.112 15.75 11.1124 15.75 11.1127 15.75C11.1133 15.75 11.114 15.75 11.1147 15.75C11.1161 15.75 11.1176 15.75 11.1193 15.75C11.1226 15.7499 11.1265 15.7499 11.1309 15.7498C11.1398 15.7496 11.1509 15.7494 11.164 15.7489C11.1902 15.7479 11.2248 15.7461 11.2665 15.7427C11.3497 15.736 11.4629 15.7231 11.5964 15.6981C11.8603 15.6486 12.2214 15.5484 12.5898 15.3412C13.3756 14.8991 14.0832 14.0276 14.0832 12.5H12.5832C12.5832 13.4724 12.1796 13.8509 11.8544 14.0338C11.6672 14.1391 11.4727 14.1951 11.32 14.2238C11.2451 14.2378 11.1847 14.2444 11.1464 14.2475C11.1273 14.2491 11.1141 14.2497 11.1078 14.2499C11.1046 14.25 11.1032 14.2501 11.1037 14.25C11.104 14.25 11.1047 14.25 11.1059 14.25C11.1065 14.25 11.1072 14.25 11.108 14.25C11.1085 14.25 11.1089 14.25 11.1094 14.25C11.1096 14.25 11.11 14.25 11.1101 14.25C11.1105 14.25 11.1109 14.25 11.1109 15ZM14.0832 12.5C14.0832 10.9724 13.3756 10.1009 12.5898 9.65882C12.2214 9.45161 11.8603 9.3514 11.5964 9.30191C11.4629 9.27688 11.3497 9.26398 11.2665 9.25729C11.2248 9.25394 11.1902 9.25212 11.164 9.25114C11.1509 9.25064 11.1398 9.25036 11.1309 9.2502C11.1265 9.25012 11.1226 9.25007 11.1193 9.25004C11.1176 9.25002 11.1161 9.25001 11.1147 9.25001C11.114 9.25001 11.1133 9.25 11.1127 9.25C11.1124 9.25 11.112 9.25 11.1118 9.25C11.1114 9.25 11.1109 9.25 11.1109 10C11.1109 10.75 11.1105 10.75 11.1101 10.75C11.11 10.75 11.1096 10.75 11.1094 10.75C11.1089 10.75 11.1085 10.75 11.108 10.75C11.1072 10.75 11.1065 10.75 11.1059 10.75C11.1047 10.75 11.104 10.75 11.1037 10.75C11.1032 10.7499 11.1046 10.75 11.1078 10.7501C11.1141 10.7503 11.1273 10.7509 11.1464 10.7525C11.1847 10.7556 11.2451 10.7622 11.32 10.7762C11.4727 10.8049 11.6672 10.8609 11.8544 10.9662C12.1796 11.1491 12.5832 11.5276 12.5832 12.5H14.0832ZM5.9165 14C5.9165 14.9665 6.70001 15.75 7.6665 15.75V14.25C7.52843 14.25 7.4165 14.1381 7.4165 14H5.9165ZM7.4165 6C7.4165 5.86193 7.52843 5.75 7.6665 5.75V4.25C6.70001 4.25 5.9165 5.0335 5.9165 6H7.4165ZM11.1109 14.25C11.1109 14.25 11.1109 15 11.1109 15.75C11.1109 15.75 11.1109 15.75 11.1109 15C11.1109 14.25 11.1109 14.25 11.1109 14.25C11.1109 15 11.1109 15.75 11.1109 15.75V14.25Z" fill="#FAFAFA"/>
</svg>
